<?xml version="1.0" encoding="UTF-8"?>
<svg id="Layer_1" xmlns="http://www.w3.org/2000/svg" version="1.1" viewBox="0 0 795.43 795.43">
  <!-- Generator: Adobe Illustrator 29.1.0, SVG Export Plug-In . SVG Version: 2.1.0 Build 142)  -->
  <defs>
    <style>
      .st0 {
        fill: #fff;
      }

      .st1 {
        fill: #b1407e;
      }

      .st2 {
        fill: #b1417e;
      }
    </style>
  </defs>
  <path class="st1" d="M520.56,130.13c.32.47,8.6,4.2,10.27,5.19,35.9,21.41,64.44,58.89,73.46,99.94l-6.64-16.12c-17.87-35.24-48.24-63.2-83.45-80.7-.53-.29-1.07-.5-1.68-.34-.98.26-10.61,8-12.59,9.37-12.2,8.48-23.58,15.34-32.11,28.03-11.54,17.16-9.71,36.37-10.79,56.1-.99,17.99,1.7,49.35-21.24,54.64-14.62,3.37-25.27-8.97-36.94-15.44-6.52,5.26-13.78,13.18-21.42,16.66-13.26,6.03-26.45-.46-35.16,14.87-3.56,6.26-5.39,13.52-9.56,19.67-11.92,17.54-39.46,16.51-57.79,12.19,2.19,15.66,5.49,30.65,14.03,44.14,14.94,23.56,42.61,51.57,39.85,81.42-.33,3.54-2.78,9.3-2.76,11.88.03,4.06,10.4,15.78,13.8,18.26,6.7,4.88,19.51,2.97,27.26,1.68l-7.87-9.83c2.23-.07,4.81,1.23,6.75,2.24,11.18,5.81,22.6,19.93,24.09,32.68.1.87.59,3.79-.49,4.14-4.89-9.05-11.59-16.97-18.55-24.47-6.45,2.55-12.66,5.42-19.68,6.2,14.13,15.91,31.82,31.03,37.5,52.44,1.61,6.09,2,12.39,2.4,18.67,11.34,1.77,19.49,1.1,30.23-2.66,33.4-11.69,48.77-39.36,70.66-64.24,14.63-16.62,31.95-31.47,50.93-42.95,1.53-.93,3.26-2.23,5.01-2.57-18.47,13.2-35.23,28.72-49.13,46.71-9.82,12.71-18.07,26.73-28.46,38.99-19.39,22.89-48.59,44.65-80.36,38.52-1.87,15.07-7.51,30.22-17.33,41.88,21.92,25.02,50.77,46.33,84.76,50.28,5.64-36.71,23.43-70.69,46.69-99.18,6.16-7.54,14.82-17.74,22.19-23.9.63-.53.91-1.36,1.97-1.12l-18.2,22.54c-21.55,30.07-38.46,65.34-40.82,102.81,6.33.59,12.55-.77,18.82-1.15.61-.04,2.13-.36,1.98.58-50.12,17.36-101.06-9.96-131.25-49.45-12.66,26.13-28.39,52.21-52.55,69.13l15.4-21.97c14.14-22.4,25.57-46.58,33.5-71.9,1.04-.24,1.09.35,1.59.93,1.53,1.77,8.63,14.27,9.93,14.23,13.48-17.72,17.76-40.76,11.67-62.25-6.41-22.62-27.4-39.16-42.59-56.33-9.84-11.12-19.67-22.69-27.83-35.13-25.99-39.6-36.39-88.7-43.82-134.92-16.4-6.6-31.14-16.6-44.68-27.83-3.81-3.16-7.96-7.98-11.81-10.67-.48-.33-.56-.78-1.41-.55-5.33,16.7-14.56,32.72-24.84,46.83-4.12,5.65-9.18,11.87-14.5,16.41-.55.47-3.5,2.91-3.94,2.52,18.16-20.71,27.97-48.53,34.24-75.08-.08-1.24-6.2-6.63-7.55-8.1-9.89-10.77-19.11-22.15-28.35-33.48l-4.51-6.44c23.77,25.75,48.05,51.91,77.96,70.71,19.49,12.25,51.65,27.75,74.92,21.19,16.42-4.63,18.65-18.51,25.35-31.96l-28.15-21.71c3.93,1.68,7.66,3.93,11.66,5.48,20.14,7.82,42.46,7.43,60.7-4.8,1.26-.84,9.58-7.12,9.71-7.72.17-.78-.44-.96-.92-1.31-6.31-3.24-13.11-5.65-19.05-9.62-8-5.35-13.96-12.1-6.73-21.37-.21,4.78-.54,8.04,2.54,12.07,5.31,6.94,24.91,12.26,33.72,16.87,7.66,4,19.87,13.35,27.41,15.31,24.56,6.37,19.74-35.48,20.33-49.04,1.61-37.1,3.46-56.52,35.03-79.08,5.34-3.82,11.24-6.78,16.55-10.43,15.71-10.79,27.57-26.84,37.49-42.89,16.49-26.69,29.5-56.32,39.68-85.95,1-.14.55,1.26.43,1.83-2.06,9.52-6.11,21.29-9.27,30.65-10.33,30.59-24.39,61.44-45.41,86.12-.26.42-.48,1.33-.26,1.66Z"/>
  <path class="st1" d="M229.37,624.24c3.76-5.66,8.13-9.29,15.1-10.19-.75-10.07,5.12-23.67,16.16-25.16,1.8-.24,4.92.43,6.18-.57.7-.56,1.38-5.9,1.9-7.65,2.26-7.6,8.38-14.99,16.65-15.95,3.76-.44,7.94.23,11.73-.07,9.06-.71,15.58-5.46,24.84-.65,16,8.31,21.11,34.26,21.53,50.69l-5.76-16.44c-4.36-10.93-12.77-29.61-27.15-27.99-3.73.42.08,3.38,1.18,5.62,3.79,7.73,4.4,16.62,7,24.76-6.57-9.16-9.69-25.58-23.33-26.97-12.63-1.29-17.05,5.91-18.82,17.14-.51,3.28.82,9.83-4.78,9.85s-10.14-6.39-15.58,1.83c-4.21,6.37-1.68,9.13-2.15,15.28-.9,11.9-10.02,2.55-15.37,6.55-5.8,4.34-2.48,11.09.1,16.03,9.26,17.73,22.1,37.72,33.03,54.66,18.16,28.16,42.89,63.72,70.32,83.13,3.71,2.63,7.75,4.74,11.42,7.41-31.67-10.29-55.16-36.89-74.98-62.45-32.16-41.47-53.19-85.32-78.37-130.73-15.19-27.39-32.46-52.74-52.37-76.92l.27-.83c18.32,16.92,35.72,35.77,49.87,56.36,11.66,16.96,21.32,35.31,31.36,53.24Z"/>
  <path class="st2" d="M647.56,556.23l-4.2-20.8c-7.96-34.2-24.63-62.5-50.58-86.01-1.08-.98-8.02-7.08-8.56-7.22-1.55-.4-4.08,2.35-5.62,3.19-8.15,4.45-20.09,8.96-27.17.41-.63-.76-2.24-2.26-1.39-3.1,6.4,8.3,15.63,4.86,22.94-.11,13.12-8.91,20.86-22.57,23.83-38,2.56-13.29,6.25-56.52-15.2-56.28-16.25.18-30.98,15.74-40.27,27.5,3.74-8.82,10.54-17.8,17.69-24.19,33.54-29.96,51.55,2.21,49.76,35.7-.93,17.33-5.94,35-17.38,48.27,34.19,30.72,54.17,74.61,56.16,120.64Z"/>
  <path class="st1" d="M440.15,159.38c-16.41-7.81-32.84-15.53-50.3-20.8-18.34-5.54-38.11-8.1-56.06-13.64-1.29-.4-3.61-.9-4.37-2.09,39.23-2.85,82.75,7.83,110.73,36.53Z"/>
  <path class="st1" d="M432.84,428.64c-4.22,4.05-10.5,6.93-16.01,9-17.06,6.41-37.76,8.09-45.82-11.81,4.46,1.42,8.48,4.05,13.05,5.22,12.51,3.19,24.21-1.61,36.7-2.4,3.98-.25,8.09.17,12.08,0Z"/>
  <path class="st1" d="M396.87,164.45c-14.02,19.36-45.72,8.59-51.71-12.37,8.44,4.18,16.42,10.19,25.83,12.1,8.27,1.69,17.49.72,25.88.27Z"/>
  <path class="st2" d="M430.03,406.14c-18.88.7-37.63-1.73-56.48-1.69l-4.78-1.11c14.94-7.04,31.75-8.05,47.64-3.53,4.62,1.32,9.94,3.27,13.62,6.33Z"/>
  <path class="st0" d="M321.54,466.86c-16.3-21.57-26.12-47.3-33.71-73.07l25.74,41.99c5.59,9.49,8.52,19.99,7.98,31.08Z"/>
</svg>