<svg width="191" height="40" viewBox="0 0 191 40" fill="none" xmlns="http://www.w3.org/2000/svg">
<g clip-path="url(#clip0_913_287)">
<path d="M98.2477 17.3658C98.2477 7.7782 90.3654 9.36325e-05 80.6413 9.36325e-05H80.6149V9.93259C77.6592 3.83925 71.4734 -0.0219199 64.7006 9.36325e-05H64.6742V22.495C64.7168 32.0503 72.5814 39.7829 82.285 39.7829H82.3114V29.8489C85.2671 35.9437 91.4529 39.8049 98.2257 39.7829H98.2521V22.5023C98.2917 32.0576 98.2477 17.3658 98.2477 17.3658ZM98.2477 17.3996V19.2017V17.3922V17.3996Z" fill="#293D2A"/>
<path d="M49.978 24.2867V0.0131836H32.3452V22.395C32.3452 29.9838 37.2821 36.4353 44.1606 38.798C46.0244 39.4379 47.9807 39.7637 49.9516 39.7608C47.922 39.7608 60.9833 39.7784 60.9833 39.7784V18.6792V18.6704C57.3819 18.6381 51.9358 20.7132 49.978 24.2867Z" fill="#293D2A"/>
<path d="M11.0068 15.5004V23.1406C11.0434 29.7813 15.3728 34.7989 20.1365 37.6211C23.4591 39.5891 28.6396 39.771 28.6396 39.771V0.00878906C28.6396 0.00878906 13.0613 0.0263999 11.0332 0.0263999C13.0613 0.0263999 0 0.00878906 0 0.00878906V21.108V21.1168C3.60728 21.1535 9.04902 19.0784 11.0068 15.5004Z" fill="#293D2A"/>
<path d="M108.449 7.74436H109.871V1.41621H112.37V0.126221H105.951V1.41621H108.449V7.74436Z" fill="#293D2A"/>
<path d="M114.705 4.4438H118.158V7.74436H119.58V0.126221H118.158V3.22425H114.705V0.126221H113.283V7.74436H114.705V4.4438Z" fill="#293D2A"/>
<path d="M126.49 6.52628H122.518V4.40271H125.881V3.23453H122.518V1.2944H126.49V0.126221H121.096V7.74436H126.49V6.52628Z" fill="#293D2A"/>
<path d="M106.713 12.9148V23.7997H114.419V22.0592H108.744V12.9148H106.713Z" fill="#293D2A"/>
<path d="M122.542 21.2608L123.5 23.7997H125.701L121.526 12.9148H119.325L115.291 23.7997H117.303L118.202 21.2608H122.542ZM120.321 15.3392L121.889 19.5188H118.826L120.321 15.3392Z" fill="#293D2A"/>
<path d="M131.077 23.9448C133.572 23.9448 135.286 22.3921 136.055 20.0411L134.039 19.3073C133.704 21.0053 132.805 22.0649 131.077 22.0649C129.35 22.0649 128.014 20.5694 128.014 18.3637C128.014 16.1579 129.278 14.6625 131.077 14.6625C132.587 14.6625 133.704 15.6897 134.039 17.42L136.085 16.6657C135.499 14.3763 133.44 12.7737 131.077 12.7678C128.189 12.7678 125.838 15.091 125.838 18.2404C125.838 21.5219 127.913 23.9448 131.077 23.9448Z" fill="#293D2A"/>
<path d="M140.361 23.7997H142.394V14.7581H145.964V12.9148H136.792V14.7581H140.361V23.7997Z" fill="#293D2A"/>
<path d="M155.407 23.7997L151.227 12.9148H149.026L144.99 23.7997H147.008L147.907 21.2608H152.247L153.205 23.7997H155.407ZM148.527 19.5188L150.022 15.3392L151.589 19.5188H148.527Z" fill="#293D2A"/>
<path d="M154.325 14.7581H157.896V23.7997H159.927V14.7581H163.497V12.9148H154.325V14.7581Z" fill="#293D2A"/>
<path d="M166.764 12.9148H164.733V23.7997H166.764V12.9148Z" fill="#293D2A"/>
<path d="M178.949 18.2418C178.949 15.0484 176.714 12.7693 173.725 12.7693C170.735 12.7693 168.485 15.0484 168.485 18.2418C168.485 21.6671 170.687 23.9448 173.725 23.9448C176.763 23.9448 178.949 21.6671 178.949 18.2418ZM173.725 22.0575C171.78 22.0575 170.662 20.7074 170.662 18.3563C170.662 16.0053 171.78 14.6551 173.725 14.6551C175.669 14.6551 176.773 16.0919 176.773 18.3563C176.773 20.6208 175.64 22.059 173.725 22.059V22.0575Z" fill="#293D2A"/>
<path d="M187.979 12.9148V21.3768L183.625 12.9148H180.679V23.7997H182.711V15.5285L187.065 23.7997H190.012V12.9148H187.979Z" fill="#293D2A"/>
<path d="M114.012 37.432L109.66 28.97H106.713V39.8549H108.744V31.5822L113.098 39.8549H116.045V28.97H114.012V37.432Z" fill="#293D2A"/>
<path d="M118.155 39.8549H125.861V38.1144H120.186V35.0809H124.99V33.4108H120.186V30.6401H125.861V28.97H118.155V39.8549Z" fill="#293D2A"/>
<path d="M126.993 30.8132H130.564V39.8549H132.596V30.8132H136.165V28.97H126.993V30.8132Z" fill="#293D2A"/>
<path d="M147.835 36.4736L145.543 28.97H143.323L141.305 36.3871L139.143 28.97H136.994L140.085 39.8549H142.292L144.382 32.1487L146.616 39.8549H148.823L151.856 28.97H149.824L147.835 36.4736Z" fill="#293D2A"/>
<path d="M157.574 28.8245C154.541 28.8245 152.335 31.1036 152.335 34.297C152.335 37.7223 154.536 40 157.574 40C160.612 40 162.799 37.7223 162.799 34.297C162.799 31.1036 160.564 28.8245 157.574 28.8245ZM157.574 38.1142C155.628 38.1142 154.511 36.764 154.511 34.413C154.511 32.0619 155.628 30.7118 157.574 30.7118C159.52 30.7118 160.621 32.1485 160.621 34.413C160.621 36.6774 159.489 38.1142 157.574 38.1142Z" fill="#293D2A"/>
<path d="M169.347 34.4998C170.986 34.3838 172.482 33.7454 172.482 31.6556C172.482 29.7258 171.088 28.97 168.447 28.97H164.527V39.8549H166.56V34.9063L166.836 34.9503C169.68 35.4141 170.029 37.9544 170.261 39.8549H172.879V39.5071C172.075 38.8981 172.176 35.2688 169.347 34.4998ZM168.665 33.4989H166.56V30.6401H168.519C169.84 30.6401 170.348 31.0803 170.348 32.0328C170.348 32.9852 169.825 33.4989 168.665 33.4989Z" fill="#293D2A"/>
<path d="M180.77 28.9729L176.713 33.4079V28.9729H174.682V39.8549H176.713V36.0246L177.593 35.0941C179.877 35.803 180.192 38.0997 180.406 39.8549H183.019V39.5071C182.238 38.9098 182.298 34.5027 178.49 34.1549L183.446 28.9729H180.77Z" fill="#293D2A"/>
<path d="M186.931 38.9169H186.676L186.225 38.1729H185.851V38.9169H185.634V37.2468H186.236C186.553 37.2468 186.761 37.4303 186.761 37.7091C186.761 37.9146 186.644 38.0716 186.451 38.1391L186.933 38.9169H186.931ZM185.851 37.4405V37.9777H186.211C186.416 37.9777 186.538 37.8793 186.538 37.7106C186.538 37.5418 186.416 37.4405 186.211 37.4405H185.851Z" fill="#293D2A"/>
<path d="M186.167 39.8547C185.189 39.8547 184.394 39.0593 184.394 38.0819C184.394 37.1045 185.189 36.3091 186.167 36.3091C187.144 36.3091 187.94 37.1045 187.94 38.0819C187.94 39.0593 187.144 39.8547 186.167 39.8547ZM186.167 36.5366C185.314 36.5366 184.62 37.2307 184.62 38.0834C184.62 38.936 185.314 39.6302 186.167 39.6302C187.019 39.6302 187.714 38.936 187.714 38.0834C187.714 37.2307 187.019 36.5366 186.167 36.5366Z" fill="#293D2A"/>
</g>
<defs>
<clipPath id="clip0_913_287">
<rect width="190.012" height="40" fill="white"/>
</clipPath>
</defs>
</svg>
